<svg width="149" height="34" viewBox="0 0 149 34" fill="none" xmlns="http://www.w3.org/2000/svg">
<g clip-path="url(#clip0_1_3982)">
<path d="M140.656 27.334C140.656 25.1108 142.415 23.3071 144.579 23.3071C146.745 23.3071 148.501 25.1108 148.501 27.334C148.501 29.5572 146.745 31.3598 144.579 31.3598C142.415 31.3598 140.656 29.5572 140.656 27.334Z" fill="#C4C4C4"/>
<path d="M15.555 16.6693C15.555 14.1187 15.075 12.2263 14.1148 10.9935C13.1533 9.76199 11.6972 9.14676 9.7391 9.14676H7.6565V24.7441H9.25007C11.4247 24.7441 13.0183 24.082 14.0331 22.7538C15.0466 21.428 15.555 19.3993 15.555 16.6693ZM22.9827 16.4034C22.9827 21.0503 21.766 24.6311 19.3324 27.1443C16.8989 29.6587 13.4781 30.9159 9.06829 30.9159H0.5V3.07149H9.66659C13.9183 3.07149 17.2008 4.21465 19.514 6.49959C21.8262 8.78572 22.9827 12.0855 22.9827 16.4038M46.717 30.9158H53.5351V2.95452H46.717V30.9158ZM63.1133 20.486C63.1133 22.2688 63.3402 23.6285 63.7933 24.563C64.2473 25.4988 65.0076 25.966 66.0767 25.966C67.1347 25.966 67.8827 25.4988 68.3186 24.563C68.7543 23.6285 68.9711 22.2688 68.9711 20.486C68.9711 18.7126 68.7509 17.3749 68.3095 16.472C67.8668 15.5664 67.1119 15.1133 66.0416 15.1133C64.9951 15.1133 64.2473 15.5644 63.7931 16.4614C63.3404 17.3598 63.1133 18.7009 63.1133 20.486ZM75.9106 20.486C75.9106 23.8826 75.0435 26.5323 73.3046 28.4315C71.567 30.3319 69.1345 31.2828 66.0076 31.2828C63.0089 31.2828 60.6219 30.311 58.8501 28.3674C57.076 26.4239 56.1895 23.7975 56.1895 20.4862C56.1895 17.1 57.058 14.4689 58.7968 12.593C60.5355 10.717 62.9736 9.77914 66.113 9.77914C68.0529 9.77914 69.7691 10.2138 71.2559 11.0818C72.7439 11.9497 73.8927 13.1932 74.6997 14.8128C75.5078 16.43 75.9106 18.3224 75.9106 20.486ZM78.6184 30.9158H85.4376V10.1462H78.6184V30.9158ZM78.6181 7.63382H85.4374V2.95349H78.6181V7.63382ZM99.2531 25.6183C100.174 25.6183 101.27 25.3782 102.549 24.9017V30.1276C101.63 30.5424 100.756 30.8394 99.9249 31.0154C99.0942 31.1938 98.1191 31.2823 97.0034 31.2823C94.7139 31.2823 93.0637 30.6916 92.0501 29.5122C91.041 28.3332 90.5349 26.5225 90.5349 24.0791V15.517H88.1467V10.1481H90.5349V4.84394L97.4064 3.61709V10.1479H101.757V15.5172H97.4064V23.6013C97.4064 24.946 98.0227 25.6183 99.2531 25.6183ZM115.035 25.6183C115.956 25.6183 117.052 25.3782 118.331 24.9017V30.1276C117.413 30.5424 116.538 30.8394 115.707 31.0154C114.875 31.1938 113.904 31.2823 112.786 31.2823C110.496 31.2823 108.846 30.6916 107.835 29.5122C106.823 28.3332 106.317 26.5225 106.317 24.0791V15.517H103.928V10.1481H106.317V4.76367L113.187 3.61709V10.1479H117.54V15.5172H113.187V23.6013C113.187 24.946 113.804 25.6183 115.035 25.6183ZM126.936 17.9558C127.029 16.8187 127.345 15.9855 127.886 15.4531C128.428 14.9217 129.098 14.656 129.899 14.656C130.773 14.656 131.468 14.9543 131.983 15.5555C132.502 16.1532 132.772 16.9538 132.793 17.9558H126.936ZM136.552 12.2277C134.931 10.5966 132.631 9.77966 129.656 9.77966C126.529 9.77966 124.123 10.7177 122.436 12.5936C120.751 14.4696 119.908 17.161 119.908 20.6685C119.908 24.0649 120.819 26.6843 122.637 28.5229C124.457 30.3616 127.012 31.2821 130.302 31.2821C131.882 31.2821 133.242 31.1715 134.381 30.9513C135.514 30.7334 136.611 30.3395 137.674 29.7709L136.626 25.0902C135.854 25.4144 135.118 25.6636 134.423 25.8277C133.42 26.0668 132.319 26.1867 131.12 26.1867C129.806 26.1867 128.769 25.8571 128.008 25.1976C127.248 24.5369 126.843 23.6256 126.796 22.4652H138.984V19.276C138.984 16.2081 138.174 13.8578 136.552 12.2277ZM32.0321 17.9558C32.1252 16.8187 32.442 15.9855 32.9821 15.4531C33.5234 14.9217 34.1942 14.656 34.9969 14.656C35.8685 14.656 36.5632 14.9543 37.0796 15.5555C37.5982 16.1532 37.8672 16.9538 37.8911 17.9558H32.0321ZM41.6492 12.2277C40.0272 10.5966 37.7287 9.77966 34.7528 9.77966C31.6246 9.77966 29.2196 10.7177 27.534 12.5936C25.8485 14.4696 25.0041 17.161 25.0041 20.6685C25.0041 24.0649 25.9143 26.6843 27.7349 28.5229C29.5532 30.3616 32.1081 31.2821 35.3987 31.2821C36.9786 31.2821 38.3384 31.1715 39.4778 30.9513C40.6106 30.7334 41.7071 30.3395 42.7717 29.7709L41.723 25.0902C40.9499 25.4144 40.2145 25.6636 39.5209 25.8277C38.5155 26.0668 37.4156 26.1867 36.2169 26.1867C34.9036 26.1867 33.8653 25.8571 33.1047 25.1976C32.3431 24.5369 31.9391 23.6256 31.8926 22.4652H44.0804V19.276C44.0804 16.2081 43.2701 13.8578 41.6492 12.2277Z" fill="#666666"/>
</g>
<defs>
<clipPath id="clip0_1_3982">
<rect width="148" height="33" fill="white" transform="translate(0.5 0.656738)"/>
</clipPath>
</defs>
</svg>
