<svg width="21" height="21" viewBox="0 0 21 21" fill="none" xmlns="http://www.w3.org/2000/svg">
<g clip-path="url(#clip0_1_3946)">
<mask id="mask0_1_3946" style="mask-type:luminance" maskUnits="userSpaceOnUse" x="0" y="0" width="21" height="21">
<path d="M0.168945 0.647461H20.1689V20.6475H0.168945V0.647461Z" fill="white"/>
</mask>
<g mask="url(#mask0_1_3946)">
<path d="M15.1689 16.4805H5.16895C4.94826 16.4797 4.73685 16.3917 4.5808 16.2356C4.42475 16.0796 4.33674 15.8681 4.33595 15.6475V5.64746C4.33595 5.18946 4.71095 4.81446 5.16895 4.81446H9.33595C9.5568 4.81367 9.76837 4.72552 9.92444 4.56925C10.0805 4.41299 10.1684 4.20132 10.1689 3.98046C10.1682 3.75978 10.0801 3.54836 9.92409 3.39231C9.76805 3.23627 9.55663 3.14825 9.33595 3.14746H4.33595C3.41095 3.14746 2.66895 3.89746 2.66895 4.81446V16.4805C2.66895 17.3975 3.41895 18.1475 4.33595 18.1475H16.0019C16.9189 18.1475 17.6689 17.3975 17.6689 16.4805V11.4805C17.6682 11.2598 17.5801 11.0484 17.4241 10.8923C17.268 10.7363 17.0566 10.6483 16.8359 10.6475C16.6151 10.648 16.4034 10.7359 16.2472 10.892C16.0909 11.048 16.0027 11.2596 16.0019 11.4805V15.6475C16.0012 15.8681 15.9131 16.0796 15.7571 16.2356C15.601 16.3917 15.3896 16.4797 15.1689 16.4805ZM11.8359 3.98046C11.8359 4.43946 12.2109 4.81446 12.6689 4.81446H14.8269L7.21895 12.4225C7.14179 12.4996 7.08059 12.5912 7.03884 12.692C6.99709 12.7928 6.97559 12.9009 6.97559 13.01C6.97559 13.1191 6.99709 13.2271 7.03884 13.3279C7.08059 13.4287 7.14179 13.5203 7.21895 13.5975C7.2961 13.6746 7.38769 13.7358 7.48849 13.7776C7.5893 13.8193 7.69734 13.8408 7.80645 13.8408C7.91555 13.8408 8.02359 13.8193 8.1244 13.7776C8.2252 13.7358 8.31679 13.6746 8.39395 13.5975L16.0019 5.98946V8.14746C16.0019 8.60546 16.3769 8.98046 16.8359 8.98046C17.0566 8.97967 17.268 8.89165 17.4241 8.73561C17.5801 8.57956 17.6682 8.36814 17.6689 8.14746V3.98046C17.6682 3.75978 17.5801 3.54836 17.4241 3.39231C17.268 3.23627 17.0566 3.14825 16.8359 3.14746H12.6689C12.4483 3.14825 12.2368 3.23627 12.0808 3.39231C11.9248 3.54836 11.8367 3.75978 11.8359 3.98046Z" fill="#F7F7F7"/>
</g>
</g>
<defs>
<clipPath id="clip0_1_3946">
<rect width="20" height="20" fill="white" transform="translate(0.168945 0.647461)"/>
</clipPath>
</defs>
</svg>
